<svg width="16" height="16" viewBox="0 0 16 16" fill="none" xmlns="http://www.w3.org/2000/svg">
<path d="M15.9971 5.5998C15.9707 5.14354 15.428 4.787 14.3427 4.515C14.3792 4.435 14.3997 4.3518 14.4 4.2654V2.3998H14.3955C14.3 0.845671 7.93147 0.799805 7.2 0.799805C6.46853 0.799805 0.1 0.845671 0.00453333 2.3998H0V2.43447V4.2662C0.00133333 4.77287 0.6552 5.1694 1.628 5.4646C1.61467 5.50887 1.60667 5.55394 1.604 5.5998H1.6V5.63447V7.463C0.552 7.73287 0.0285333 8.08434 0.00266667 8.53314H0V8.5678V10.3995C0.0008 10.7523 0.318933 11.0515 0.839467 11.3009C0.82 11.3547 0.807467 11.4099 0.804 11.4665H0.8V11.5011V13.3329C0.802133 14.2198 2.7992 14.7705 5.01813 15.0275C5.0344 15.0307 5.04933 15.0374 5.06667 15.0374C5.07173 15.0374 5.076 15.0347 5.08107 15.0345C5.5088 15.0827 5.94347 15.1203 6.3736 15.1473C6.38267 15.1483 6.39067 15.1526 6.4 15.1526C6.40507 15.1526 6.40907 15.1499 6.41387 15.1497C6.96 15.183 7.49733 15.1998 8 15.1998C8.50267 15.1998 9.04 15.183 9.58613 15.1497C9.59093 15.1499 9.5952 15.1526 9.6 15.1526C9.60933 15.1526 9.61733 15.1481 9.6264 15.1473C10.0565 15.1203 10.4912 15.083 10.9189 15.0345C10.924 15.0345 10.9283 15.0371 10.9333 15.0371C10.9507 15.0371 10.9656 15.0305 10.9819 15.0273C13.2008 14.7702 15.1976 14.2193 15.2 13.3321V11.4665H15.1957C15.1771 11.1395 14.8984 10.8667 14.348 10.6387C14.3816 10.5617 14.4 10.4817 14.4 10.3987V8.6558C15.3573 8.3614 15.9987 7.96754 16 7.4654V5.5998H15.9971ZM1.86667 4.97954V3.69127C2.11573 3.75847 2.38347 3.8198 2.66667 3.87554V5.17714C2.63387 5.1702 2.6 5.16327 2.568 5.15634C2.42613 5.12514 2.28773 5.0926 2.15547 5.0582C2.05467 5.03234 1.95893 5.00594 1.86667 4.97954ZM13.8056 4.395L13.7981 4.3934L13.7011 4.46887C13.5603 4.57847 13.344 4.6894 13.0667 4.7966V3.52807C13.3837 3.41767 13.6536 3.29527 13.8667 3.16114V4.2646C13.8667 4.30514 13.8453 4.34887 13.8056 4.395ZM6.71333 10.3953C6.78667 10.3966 6.86 10.3977 6.93333 10.3985V11.7313C6.8816 11.7307 6.82987 11.7307 6.7784 11.7299C6.75493 11.7297 6.73227 11.7289 6.70907 11.7286C6.58693 11.7265 6.46533 11.7235 6.34453 11.7198C6.3296 11.7193 6.31467 11.7187 6.29973 11.7182C6.1544 11.7134 6.01013 11.7073 5.86693 11.7003V10.3691C6.13413 10.3817 6.40267 10.3899 6.6712 10.3947C6.68507 10.3947 6.6992 10.395 6.71333 10.3953ZM7.72907 10.3945C7.9976 10.3894 8.26613 10.3811 8.53333 10.3689V11.7003C8.47627 11.7033 8.41893 11.7059 8.36107 11.7083C8.20107 11.715 8.03867 11.7206 7.8736 11.7246C7.83467 11.7257 7.79547 11.7262 7.75627 11.727C7.66107 11.7289 7.56347 11.7294 7.46693 11.7302V10.3982C7.54027 10.3974 7.6136 10.3963 7.68693 10.395C7.7008 10.395 7.71493 10.3947 7.72907 10.3945ZM9.24427 11.6553C9.1856 11.6598 9.1264 11.6643 9.06667 11.6686V10.3387C9.33707 10.3209 9.60427 10.2995 9.86667 10.2739V11.5982C9.70187 11.6155 9.53333 11.6318 9.36027 11.6459C9.3216 11.6494 9.28293 11.6523 9.24427 11.6553ZM10.4 10.2163C10.6749 10.1833 10.9419 10.1457 11.2 10.1038V11.4131C10.9488 11.4574 10.6819 11.4982 10.4 11.5353V10.2163ZM4.67173 11.6126C4.64453 11.6099 4.6176 11.607 4.59067 11.6043C4.57147 11.6025 4.55253 11.6001 4.53333 11.5982V10.2742C4.79573 10.2995 5.06293 10.3211 5.33333 10.339V11.6678C5.10933 11.6518 4.888 11.6337 4.67173 11.6126ZM4 10.2163V11.5353C3.71813 11.4982 3.4512 11.4574 3.2 11.4131V10.1038C3.45813 10.1457 3.72507 10.1835 4 10.2163ZM11.7333 11.3102V10.0086C12.0165 9.95287 12.2843 9.89154 12.5333 9.82434V11.1126C12.2957 11.1811 12.0283 11.2475 11.7333 11.3102ZM6.71333 4.26194C6.78667 4.26327 6.86 4.26434 6.93333 4.26514V5.5966C6.5744 5.59314 6.2176 5.5838 5.86667 5.5662V4.2358C6.13387 4.24834 6.4024 4.2566 6.67093 4.2614C6.68507 4.2614 6.6992 4.26167 6.71333 4.26194ZM7.72907 4.26114C7.9976 4.25607 8.26613 4.2478 8.53333 4.23554V5.56594C8.488 5.56807 8.44453 5.57127 8.39893 5.5734C8.3952 5.57367 8.39147 5.57367 8.38747 5.57394C8.20853 5.58194 8.02613 5.5878 7.84133 5.59207C7.81253 5.59287 7.78373 5.59314 7.75493 5.59394C7.66 5.5958 7.56293 5.59607 7.46667 5.59714V4.26514C7.54 4.26434 7.61333 4.26327 7.68667 4.26194C7.7008 4.26167 7.71493 4.2614 7.72907 4.26114ZM9.32907 7.46114C9.5976 7.45607 9.86613 7.4478 10.1333 7.43554V8.76567C9.78293 8.783 9.42667 8.7926 9.06667 8.79634V7.46514C9.14 7.46434 9.21333 7.46327 9.28667 7.46194C9.3008 7.46167 9.31493 7.4614 9.32907 7.46114ZM6.7592 8.7222C6.58853 8.70887 6.42187 8.6942 6.2592 8.67794C6.22427 8.67447 6.18933 8.67074 6.15467 8.66727C6.14747 8.66647 6.14053 8.6654 6.13333 8.66487V7.3406C6.39573 7.36594 6.66293 7.38754 6.93333 7.4054V8.73447C6.91173 8.73287 6.8888 8.7318 6.8672 8.7302C6.83093 8.72754 6.79493 8.72487 6.7592 8.7222ZM5.10533 8.531C4.99973 8.5142 4.90053 8.49607 4.8 8.47847V7.17074C5.05813 7.2126 5.32507 7.2502 5.6 7.28327V8.6022C5.4368 8.5806 5.27707 8.5582 5.12373 8.5342C5.1176 8.53287 5.11147 8.5318 5.10533 8.531ZM8.31333 7.46194C8.38667 7.46327 8.46 7.46434 8.53333 7.46514V8.7966C8.40347 8.79527 8.27253 8.79474 8.14587 8.7918C8.1264 8.79127 8.10613 8.791 8.08667 8.79074C7.88613 8.78567 7.69013 8.77794 7.4976 8.7686C7.4872 8.76807 7.4768 8.76754 7.46667 8.76727V7.4358C7.73387 7.44834 8.0024 7.4566 8.27093 7.4614C8.28507 7.4614 8.2992 7.46167 8.31333 7.46194ZM10.9979 8.7094C10.9883 8.7102 10.9789 8.711 10.9693 8.7118C10.8699 8.72007 10.7672 8.7254 10.6664 8.7326V7.40514C10.9368 7.38727 11.204 7.36594 11.4664 7.34034V8.66327C11.3117 8.6798 11.1571 8.69607 10.9979 8.7094ZM4.53333 5.4638V4.1406C4.79573 4.16594 5.06293 4.18754 5.33333 4.2054V5.53287C5.06187 5.5134 4.79413 5.49127 4.53333 5.4638ZM9.86667 5.46327C9.60907 5.49047 9.3424 5.5142 9.06667 5.53394V4.2054C9.33707 4.18754 9.60427 4.1662 9.86667 4.1406V5.46327ZM10.4 4.083C10.6749 4.04994 10.9419 4.01234 11.2 3.97047V5.27767C10.9472 5.3222 10.6811 5.36327 10.4 5.40034V4.083ZM11.7333 5.175V3.87554C12.0165 3.8198 12.2843 3.75847 12.5333 3.69127V4.9766C12.2944 5.0462 12.0253 5.1126 11.7333 5.175ZM4 4.083V5.4006C3.9472 5.39367 3.89227 5.38807 3.84 5.38087C3.80587 5.37607 3.77333 5.371 3.73973 5.3662C3.5856 5.34407 3.43493 5.32034 3.2872 5.29554C3.2576 5.29047 3.22907 5.28514 3.2 5.28007V3.97074C3.45813 4.01234 3.72507 4.0502 4 4.083ZM4.26667 7.07527V8.37474C3.972 8.31154 3.7048 8.24434 3.46667 8.17447V6.891C3.71573 6.9582 3.98347 7.0198 4.26667 7.07527ZM12.7752 8.48434C12.6581 8.5046 12.54 8.5246 12.4187 8.543C12.3491 8.55367 12.2779 8.5638 12.2064 8.57394C12.1389 8.58354 12.0688 8.5918 12.0003 8.6006V7.283C12.2752 7.24994 12.5421 7.21234 12.8003 7.17047V8.4798C12.7917 8.4814 12.7835 8.483 12.7752 8.48434ZM2.93333 6.72807V7.995C2.51413 7.83314 2.24373 7.6678 2.15573 7.5206L2.13787 7.49074C2.13627 7.48247 2.1336 7.47367 2.13333 7.4654V6.36114C2.3464 6.49527 2.61627 6.61767 2.93333 6.72807ZM2.66667 10.0086V11.3102C2.42187 11.2582 2.196 11.2035 1.9904 11.1475C1.95787 11.1385 1.92427 11.1297 1.89253 11.1203C1.88373 11.1177 1.87547 11.1153 1.86667 11.1129V9.8246C2.11573 9.89154 2.38347 9.95314 2.66667 10.0086ZM3.46667 12.9419V14.2435C3.17173 14.1809 2.90427 14.1145 2.66667 14.0459V12.7577C2.91573 12.8249 3.18347 12.8865 3.46667 12.9419ZM4 13.0374C4.25813 13.0793 4.52507 13.1169 4.8 13.1499V14.4689C4.51813 14.4318 4.2512 14.391 4 14.3467V13.0374ZM5.33333 13.2073C5.59573 13.2326 5.86293 13.2542 6.13333 13.2721V14.6019C5.85627 14.5825 5.5896 14.5587 5.33333 14.5318V13.2073ZM6.66667 13.3022C6.93387 13.3147 7.2024 13.323 7.47093 13.3278C7.48507 13.3281 7.4992 13.3283 7.51307 13.3286C7.5864 13.3299 7.65973 13.331 7.73307 13.3318V14.6649C7.36453 14.6614 7.0088 14.6507 6.6664 14.6339V13.3022H6.66667ZM8.26667 13.3315C8.34 13.3307 8.41333 13.3297 8.48667 13.3283C8.5008 13.3281 8.51493 13.3278 8.52907 13.3275C8.7976 13.3225 9.06613 13.3142 9.33333 13.3019V14.6334C8.99093 14.6502 8.6352 14.6609 8.26667 14.6643V13.3315ZM9.86667 13.2721C10.1371 13.2542 10.4043 13.2329 10.6667 13.2073V14.5315C10.4104 14.5585 10.1437 14.5822 9.86667 14.6017V13.2721ZM11.2 13.1497C11.4749 13.1166 11.7419 13.079 12 13.0371V14.3465C11.7488 14.3907 11.4819 14.4315 11.2 14.4686V13.1497ZM12.5333 12.9419C12.8165 12.8862 13.0843 12.8249 13.3333 12.7577V14.0459C13.0957 14.1145 12.8283 14.1809 12.5333 14.2435V12.9419ZM13.8379 10.4854L13.7469 10.5651C13.6069 10.6886 13.3736 10.8131 13.0667 10.9331V9.66167C13.3837 9.55127 13.6536 9.42887 13.8667 9.29474V10.3982C13.8667 10.4257 13.8565 10.455 13.8379 10.4854ZM14.0171 8.21207C13.8843 8.24914 13.7437 8.2838 13.6003 8.31767C13.5339 8.33314 13.4661 8.3486 13.3968 8.36354C13.3763 8.36807 13.3544 8.37207 13.3336 8.3766V7.07554C13.6168 7.0198 13.8845 6.95847 14.1336 6.89127V8.17954C14.0952 8.1902 14.0565 8.20114 14.0171 8.21207ZM0.533333 4.2654V3.16114C0.7464 3.29527 1.01627 3.41767 1.33333 3.52807V4.80487C0.814667 4.61047 0.533867 4.41554 0.533333 4.2654ZM0.533333 10.3987V9.29447C0.7464 9.4286 1.01627 9.551 1.33333 9.6614V10.9331L1.18107 10.8739L1.17787 10.8771C0.7592 10.7035 0.533867 10.5331 0.533333 10.3987ZM1.33333 13.3321V12.2278C1.5464 12.3619 1.81627 12.4843 2.13333 12.5947V13.8715C1.61467 13.6771 1.33387 13.4822 1.33333 13.3321ZM13.8667 13.8715V12.595C14.1837 12.4846 14.4536 12.3622 14.6667 12.2281V13.3315C14.6664 13.4817 14.3853 13.6769 13.8667 13.8715ZM14.6667 8.00487V6.72834C14.9837 6.61794 15.2536 6.49554 15.4667 6.3614V7.46487C15.4664 7.615 15.1853 7.8102 14.6667 8.00487Z" fill="black"/>
</svg>
