<svg width="16" height="16" viewBox="0 0 16 16" fill="none" xmlns="http://www.w3.org/2000/svg">
<g clip-path="url(#clip0)">
<path d="M10.2249 7.26813C9.59704 6.92115 8.92952 6.65679 8.26862 6.38251C7.88529 6.2239 7.51849 6.03884 7.19464 5.78109C6.55687 5.27219 6.67914 4.44606 7.42596 4.11891C7.63745 4.02638 7.85886 3.99664 8.08356 3.98343C8.94935 3.93716 9.77218 4.09578 10.5554 4.4725C10.9453 4.66085 11.0742 4.60137 11.2063 4.19492C11.3451 3.76533 11.4608 3.32913 11.5897 2.89624C11.6756 2.60544 11.5698 2.41377 11.2956 2.29151C10.7933 2.0701 10.2778 1.91149 9.73583 1.82557C9.02866 1.71652 9.02866 1.71321 9.02535 1.00274C9.02205 0.0014687 9.02205 0.00146868 8.01747 0.00146868C7.87207 0.00146868 7.72667 -0.00183585 7.58127 0.00146868C7.11203 0.0146868 7.03272 0.0973 7.0195 0.569848C7.0129 0.781337 7.0195 0.992827 7.0162 1.20762C7.0129 1.83548 7.00959 1.82557 6.40817 2.04367C4.95417 2.57239 4.05534 3.56375 3.95951 5.14992C3.87359 6.55435 4.6072 7.50275 5.76048 8.1934C6.47095 8.61968 7.25743 8.87082 8.01086 9.20458C8.30497 9.33346 8.58585 9.48216 8.83039 9.68704C9.55408 10.2852 9.4219 11.2798 8.56272 11.6565C8.10339 11.8581 7.61762 11.9077 7.11864 11.8449C6.34869 11.7491 5.61178 11.5475 4.91782 11.1873C4.51137 10.9758 4.3924 11.032 4.25361 11.4715C4.13465 11.8515 4.02891 12.2348 3.92316 12.6182C3.78107 13.1337 3.83394 13.2559 4.32631 13.4972C4.95417 13.8012 5.62499 13.9565 6.30903 14.0655C6.84436 14.1515 6.86089 14.1746 6.8675 14.7298C6.8708 14.9809 6.8708 15.2353 6.87411 15.4865C6.87741 15.8037 7.02942 15.9888 7.35657 15.9954C7.72667 16.002 8.10008 16.002 8.47019 15.9921C8.77421 15.9855 8.92952 15.8202 8.92952 15.5129C8.92952 15.1693 8.94604 14.8223 8.93283 14.4786C8.9163 14.1283 9.06831 13.9499 9.40537 13.8574C10.1819 13.6459 10.8428 13.2295 11.3517 12.6082C12.7661 10.8899 12.2274 8.37514 10.2249 7.26813Z" fill="black"/>
</g>
<defs>
<clipPath id="clip0">
<rect width="16" height="16" fill="white"/>
</clipPath>
</defs>
</svg>
