<svg width="20" height="20" viewBox="0 0 20 20" fill="none" xmlns="http://www.w3.org/2000/svg">
<path d="M10 0C4.48607 0 0 4.48607 0 10C0 15.5139 4.48607 20 10 20C11.7584 20 13.4875 19.5373 15.0012 18.6615L13.75 16.4972C12.616 17.1533 11.319 17.5 10 17.5C5.86427 17.5 2.49999 14.1357 2.49999 10C2.49999 5.86427 5.86427 2.49999 10 2.49999C14.1357 2.49999 17.5 5.86427 17.5 10V11.0889C17.5 11.9067 16.9745 12.5 16.25 12.5C15.5609 12.5 15 11.9391 15 11.25V6.24999H13.272C12.3927 5.48177 11.2566 4.99998 10 4.99998C7.24303 4.99998 4.99998 7.24303 4.99998 10C4.99998 12.757 7.24303 15 10 15C11.3129 15 12.4999 14.4808 13.393 13.6502C14.0814 14.4683 15.0996 15 16.25 15C18.3527 15 20 13.2819 20 11.0889V10C20 4.48607 15.5139 0 10 0V0ZM10 12.5C8.62119 12.5 7.50001 11.3788 7.50001 10C7.50001 8.62119 8.62124 7.50001 10 7.50001C11.3788 7.50001 12.5 8.62124 12.5 10C12.5 11.3788 11.3788 12.5 10 12.5Z" fill="black"/>
</svg>
