<svg width="16" height="16" viewBox="0 0 16 16" fill="none" xmlns="http://www.w3.org/2000/svg">
<g clip-path="url(#clip0)">
<path d="M13.3407 13.3974C13.318 13.2918 13.2613 13.2124 13.1702 13.159C13.0717 13.1063 12.973 13.0986 12.8747 13.1365L12.8181 13.159C12.7876 13.1665 12.7423 13.1781 12.6817 13.1932C12.6209 13.2083 12.5511 13.2251 12.4715 13.2443C12.3918 13.2633 12.2991 13.2819 12.193 13.3012C12.0868 13.3202 11.9751 13.3372 11.8578 13.3523C11.7403 13.3674 11.6136 13.3807 11.4771 13.3922C11.3407 13.4034 11.2044 13.409 11.068 13.409C10.1058 13.409 9.2403 13.1497 8.47142 12.6304C7.70229 12.112 7.13616 11.409 6.7726 10.5229H11.1702C11.2536 10.5229 11.3293 10.4945 11.3976 10.4377C11.4656 10.3808 11.5073 10.3106 11.5226 10.2273L11.7953 8.95472C11.8181 8.84112 11.7953 8.7385 11.7272 8.64803C11.6515 8.55702 11.5567 8.51136 11.4431 8.51136H6.22731C6.20454 7.99646 6.20454 7.59879 6.22731 7.31826H11.7727C11.9773 7.31826 12.0984 7.22014 12.1362 7.02315L12.4089 5.72749C12.4317 5.62191 12.405 5.52321 12.3293 5.43238C12.2612 5.34137 12.1663 5.29602 12.0452 5.29602H6.72724C7.10592 4.44728 7.6741 3.78096 8.4318 3.29578C9.18934 2.81097 10.0453 2.56865 10.9998 2.56865C11.1058 2.56865 11.2176 2.57219 11.3351 2.57966C11.4524 2.58767 11.5623 2.597 11.6647 2.60803C11.7669 2.61959 11.8652 2.63059 11.96 2.64217C12.0547 2.65375 12.1398 2.66698 12.2157 2.6821C12.2913 2.69722 12.3577 2.71045 12.4145 2.72163C12.4714 2.73318 12.5149 2.74251 12.5453 2.74998L12.5906 2.76153C12.689 2.7921 12.78 2.78244 12.8633 2.73318C12.9465 2.68393 12.9997 2.61026 13.0225 2.51175L13.5112 0.704571C13.5339 0.606456 13.5226 0.515413 13.477 0.432051C13.409 0.341038 13.333 0.284315 13.2499 0.261578C12.5528 0.0875075 11.818 0 11.0454 0C9.34826 0 7.83134 0.485177 6.49425 1.45462C5.15717 2.42442 4.23472 3.70464 3.72736 5.29559H2.61375C2.50762 5.29559 2.4205 5.32936 2.35241 5.39764C2.28414 5.46591 2.25 5.55302 2.25 5.65915V6.95448C2.25 7.06061 2.28414 7.14754 2.35241 7.216C2.4205 7.28427 2.50762 7.31805 2.61375 7.31805H3.37519C3.35242 7.68197 3.34852 8.07967 3.36379 8.51118H2.61375C2.51527 8.51118 2.43001 8.54754 2.35799 8.61953C2.286 8.69131 2.25 8.77656 2.25 8.87529V10.159C2.25 10.2581 2.286 10.3433 2.35799 10.4148C2.4298 10.4872 2.51505 10.5232 2.61375 10.5232H3.69325C4.17059 12.1976 5.07194 13.5286 6.39766 14.5171C7.72338 15.5056 9.27258 16.0001 11.0454 16.0001C11.1892 16.0001 11.3351 15.9965 11.4829 15.9884C11.6306 15.981 11.7686 15.9698 11.8977 15.9543C12.0264 15.9396 12.1534 15.9224 12.2784 15.9032C12.4034 15.8846 12.517 15.8655 12.6192 15.8464C12.7216 15.8277 12.8181 15.8087 12.9089 15.7894C12.9997 15.7708 13.0811 15.7499 13.1533 15.7267C13.2251 15.7042 13.2857 15.6872 13.3352 15.6757C13.3842 15.6645 13.4241 15.6512 13.4544 15.6361L13.5111 15.6245C13.5944 15.5943 13.6588 15.5393 13.7043 15.4598C13.7498 15.3803 13.761 15.2951 13.7384 15.2041L13.3407 13.3974Z" fill="black"/>
</g>
<defs>
<clipPath id="clip0">
<rect width="16" height="16" fill="white"/>
</clipPath>
</defs>
</svg>
