<svg width="223" height="455" viewBox="0 0 223 455" fill="none" xmlns="http://www.w3.org/2000/svg">
<path d="M67.9186 388.5C67.9186 384.904 70.7963 382 74.3333 382H133.109C136.646 382 139.523 384.904 139.523 388.5V448C139.523 451.596 136.646 454.5 133.109 454.5H74.3333C70.7963 454.5 67.9186 451.596 67.9186 448V388.5ZM67.9186 258.445C67.9186 256.694 68.6155 255.018 69.8497 253.796L145.211 179.164C146.636 177.753 147.438 175.821 147.438 173.805V98C147.438 86.1317 137.932 76.5 126.194 76.5H95.0775C83.3389 76.5 73.8333 86.1317 73.8333 98V143.5C73.8333 147.096 70.9556 150 67.4186 150H6.91473C3.37773 150 0.5 147.096 0.5 143.5V70C0.5 31.6104 31.2402 0.5 69.1473 0.5H153.853C191.76 0.5 222.5 31.6104 222.5 70V195.532C222.5 200.168 220.63 204.602 217.326 207.808L141.805 281.074C140.347 282.489 139.523 284.445 139.523 286.487V322C139.523 325.596 136.646 328.5 133.109 328.5H74.3333C70.7963 328.5 67.9186 325.596 67.9186 322V258.445Z" stroke="#5E5E5E"/>
</svg>
