<svg width="60" height="119" viewBox="0 0 60 119" fill="none" xmlns="http://www.w3.org/2000/svg">
<path d="M18.1395 101.608C18.1395 100.597 18.9725 99.7769 20 99.7769H35.814C36.8415 99.7769 37.6744 100.597 37.6744 101.608V117.169C37.6744 118.18 36.8415 119 35.814 119H20C18.9725 119 18.1395 118.18 18.1395 117.169V101.608Z" fill="#D60808"/>
<path d="M18.1395 67.5932C18.1395 67.1007 18.3412 66.6289 18.699 66.2845L38.9754 46.7655C39.3332 46.4211 39.5349 45.9493 39.5349 45.4568V25.6308C39.5349 22.5975 37.036 20.1385 33.9535 20.1385H25.5814C22.4989 20.1385 20 22.5975 20 25.6308V37.5308C20 38.5419 19.167 39.3615 18.1395 39.3615H1.86046C0.832958 39.3615 0 38.5419 0 37.5308V18.3077C0 8.19663 8.32959 0 18.6047 0H41.3954C51.6704 0 60 8.19663 60 18.3077V51.1392C60 52.3868 59.4824 53.5804 58.567 54.4437L38.2476 73.6056C37.8815 73.9509 37.6744 74.4283 37.6744 74.9274V84.2154C37.6744 85.2265 36.8415 86.0462 35.814 86.0462H20C18.9725 86.0462 18.1395 85.2265 18.1395 84.2154V67.5932Z" fill="#D60808"/>
</svg>
