<svg width="128" height="260" viewBox="0 0 128 260" fill="none" xmlns="http://www.w3.org/2000/svg">
<path d="M40.8588 259.562C40.1142 259.177 39.5061 258.563 39.1267 257.811L39.6624 257.54C39.4294 257.079 39.2977 256.556 39.2977 256V254.543H38.6977V252.6H39.2977V249.686H38.6977V247.743H39.2977V244.829H38.6977V242.886H39.2977V239.971H38.6977V238.029H39.2977V235.114H38.6977V233.171H39.2977V230.257H38.6977V228.314H39.2977V225.4H38.6977V223.457H39.2977V222C39.2977 221.444 39.4294 220.921 39.6624 220.46L39.1267 220.189C39.506 219.437 40.1142 218.823 40.8588 218.438L41.1342 218.971C41.5934 218.734 42.1137 218.6 42.6667 218.6H44.1125V218H46.0403V218.6H48.932V218H50.8598V218.6H53.7515V218H55.6793V218.6H58.571V218H60.4988V218.6H63.3905V218H65.3183V218.6H68.21V218H70.1378V218.6H73.0295V218H74.9573V218.6H76.4031C76.9561 218.6 77.4764 218.734 77.9356 218.971L78.211 218.438C78.9555 218.823 79.5637 219.437 79.9431 220.189L79.4074 220.46C79.6404 220.921 79.7721 221.444 79.7721 222V223.457H80.3721V225.4H79.7721V228.314H80.3721V230.257H79.7721V233.171H80.3721V235.114H79.7721V238.029H80.3721V239.971H79.7721V242.886H80.3721V244.829H79.7721V247.743H80.3721V249.686H79.7721V252.6H80.3721V254.543H79.7721V256C79.7721 256.556 79.6404 257.079 79.4074 257.54L79.9431 257.811C79.5637 258.563 78.9555 259.177 78.2109 259.562L77.9356 259.029C77.4764 259.266 76.9561 259.4 76.4031 259.4H74.9573V260H73.0294V259.4H70.1378V260H68.21V259.4H65.3183V260H63.3905V259.4H60.4988V260H58.571V259.4H55.6793V260H53.7515V259.4H50.8598V260H48.932V259.4H46.0403V260H44.1125V259.4H42.6667C42.1137 259.4 41.5934 259.266 41.1342 259.029L40.8588 259.562ZM40.8588 187.562C40.1142 187.177 39.506 186.563 39.1267 185.811L39.6624 185.54C39.4294 185.079 39.2977 184.556 39.2977 184V182.444H38.6977V180.368H39.2977V177.255H38.6977V175.18H39.2977V172.067H38.6977V169.992H39.2977V166.879H38.6977V164.804H39.2977V161.691H38.6977V159.616H39.2977V156.503H38.6977V154.427H39.2977V151.314H38.6977V149.239H39.2977V147.683C39.2977 147.409 39.3303 147.139 39.3934 146.878L38.8101 146.737C38.9099 146.324 39.0746 145.929 39.2978 145.568L39.8082 145.883C39.9495 145.655 40.1183 145.442 40.3124 145.251L41.3938 144.184L40.9726 143.757L42.4145 142.336L42.8357 142.763L44.9985 140.631L44.5773 140.203L46.0192 138.782L46.4404 139.209L48.6032 137.077L48.182 136.649L49.6239 135.228L50.0451 135.655L52.2079 133.523L51.7867 133.095L53.2286 131.674L53.6498 132.101L55.8126 129.969L55.3914 129.542L56.8333 128.12L57.2545 128.547L59.4173 126.415L58.9961 125.988L60.438 124.566L60.8592 124.993L63.022 122.861L62.6008 122.434L64.0427 121.012L64.4639 121.44L66.6267 119.307L66.2055 118.88L67.6474 117.458L68.0686 117.886L70.2314 115.753L69.8102 115.326L71.2521 113.905L71.6733 114.332L73.8361 112.199L73.4149 111.772L74.8568 110.351L75.278 110.778L77.4408 108.646L77.0196 108.218L78.4615 106.797L78.8827 107.224L81.0455 105.092L80.6243 104.664L82.0662 103.243L82.4874 103.67L83.5688 102.604C83.8317 102.345 84.0603 102.057 84.2514 101.748L83.741 101.432C83.9642 101.071 84.1288 100.676 84.2286 100.263L84.8119 100.404C84.897 100.051 84.9411 99.6864 84.9411 99.3173V97.8734H84.3411V95.9482H84.9411V93.0604H84.3411V91.1352H84.9411V88.2474H84.3411V86.3221H84.9411V83.4343H84.3411V81.5091H84.9411V78.6213H84.3411V76.6961H84.9411V73.8082H84.3411V71.883H84.9411V68.9952H84.3411V67.07H84.9411V64.1822H84.3411V62.2569H84.9411V59.3691H84.3411V57.4439H84.9411V56C84.9411 55.5013 84.9123 55.0091 84.8563 54.5251L84.2602 54.5941C84.1873 53.9642 84.066 53.3493 83.9001 52.7531L84.4781 52.5922C84.2106 51.6306 83.8327 50.7156 83.3591 49.8618L82.8344 50.1529C82.5296 49.6033 82.1831 49.0804 81.7992 48.5884L82.2723 48.2193C81.6648 47.4408 80.9683 46.7362 80.198 46.121L79.8235 46.5898C79.3354 46.2 78.8162 45.8479 78.2703 45.5379L78.5666 45.0162C77.7159 44.5331 76.8032 44.1474 75.8435 43.874L75.6792 44.4511C75.0837 44.2815 74.4693 44.1574 73.8399 44.0828L73.9105 43.4869C73.4261 43.4295 72.9334 43.4 72.4341 43.4H71.0946V44H69.3085V43.4H66.6295V44H64.8434V43.4H62.1643V44H60.3783V43.4H57.6992V44H55.9132V43.4H54.5736C54.0744 43.4 53.5817 43.4295 53.0972 43.4869L53.1679 44.0828C52.5384 44.1574 51.924 44.2815 51.3286 44.4511L51.1642 43.874C50.2045 44.1474 49.2918 44.5331 48.4411 45.0162L48.7374 45.5379C48.1915 45.8479 47.6723 46.2 47.1842 46.5898L46.8098 46.121C46.0395 46.7362 45.3429 47.4408 44.7355 48.2193L45.2085 48.5884C44.8247 49.0804 44.4782 49.6033 44.1733 50.1529L43.6487 49.8618C43.1751 50.7156 42.7972 51.6306 42.5296 52.5922L43.1077 52.7531C42.9418 53.3493 42.8205 53.9642 42.7475 54.5941L42.1515 54.5251C42.0955 55.0091 42.0667 55.5013 42.0667 56V57.56H42.6667V59.64H42.0667V62.76H42.6667V64.84H42.0667V67.96H42.6667V70.04H42.0667V73.16H42.6667V75.24H42.0667V78.36H42.6667V80.44H42.0667V82C42.0667 82.5559 41.9349 83.0788 41.702 83.5405L42.2376 83.8108C41.8583 84.5625 41.2501 85.1773 40.5055 85.5619L40.2302 85.0288C39.771 85.266 39.2506 85.4 38.6977 85.4H37.2093V86H35.2248V85.4H32.2481V86H30.2636V85.4H27.2868V86H25.3023V85.4H22.3256V86H20.3411V85.4H17.3643V86H15.3798V85.4H12.4031V86H10.4186V85.4H7.44186V86H5.45736V85.4H3.96899C3.41604 85.4 2.8957 85.266 2.4365 85.0288L2.16114 85.5619C1.41656 85.1773 0.808373 84.5625 0.429019 83.8108L0.964682 83.5405C0.731723 83.0788 0.6 82.5559 0.6 82V80.425H0V78.325H0.6V75.175H0V73.075H0.6V69.925H0V67.825H0.6V64.675H0V62.575H0.6V59.425H0V57.325H0.6V54.175H0V52.075H0.6V48.925H0V46.825H0.6V43.675H0V41.575H0.6V40C0.6 39.5228 0.608415 39.0475 0.625103 38.5745L0.0254755 38.5533C0.0482216 37.9085 0.0861132 37.2675 0.138803 36.6308L0.736759 36.6803C0.815487 35.7289 0.927743 34.7872 1.07233 33.8564L0.479435 33.7643C0.578348 33.1275 0.692169 32.4956 0.820526 31.8691L1.40832 31.9896C1.59979 31.055 1.82411 30.1326 2.07999 29.2235L1.50243 29.061C1.67689 28.4412 1.86579 27.8276 2.06877 27.2205L2.63781 27.4107C2.93959 26.508 3.27293 25.62 3.63652 24.7479L3.08272 24.517C3.33029 23.9232 3.59168 23.3366 3.86647 22.7578L4.40849 23.0151C4.81643 22.1558 5.25437 21.3137 5.72094 20.4902L5.1989 20.1945C5.5158 19.6351 5.84571 19.0843 6.18822 18.5423L6.69543 18.8628C7.20292 18.0597 7.73849 17.2764 8.30074 16.5142L7.81791 16.158C8.19933 15.641 8.59285 15.1335 8.99804 14.6361L9.46323 15.0151C10.0628 14.279 10.6884 13.5652 11.3385 12.8751L10.9018 12.4637C11.3421 11.9963 11.7935 11.5396 12.2555 11.0941L12.672 11.526C13.3549 10.8675 14.0613 10.2338 14.79 9.62627L14.4058 9.16544C14.8987 8.75443 15.4017 8.35519 15.9142 7.96815L16.2758 8.44697C17.032 7.87597 17.8094 7.33195 18.6065 6.81633L18.2806 6.31253C18.8192 5.96419 19.3666 5.6286 19.9225 5.3062L20.2235 5.82523C21.0425 5.35023 21.8802 4.9043 22.7352 4.48883L22.4729 3.94918C23.0494 3.66904 23.6336 3.40253 24.2252 3.15006L24.4607 3.70191C25.3298 3.33098 26.215 2.99085 27.1149 2.68288L26.9206 2.1152C27.5264 1.90788 28.1388 1.7149 28.7573 1.53666L28.9235 2.1132C29.8308 1.85176 30.7516 1.62253 31.6846 1.42682L31.5615 0.839603C32.1874 0.708306 32.8188 0.591869 33.4552 0.490675L33.5494 1.08323C34.4796 0.935323 35.4208 0.820476 36.3716 0.739927L36.321 0.142068C36.9576 0.088141 37.5985 0.049357 38.2433 0.0260751L38.265 0.625684C38.7378 0.608611 39.2129 0.6 39.6899 0.6H41.1485V0H43.0933V0.6H46.0105V0H47.9553V0.6H50.8726V0H52.8174V0.6H55.7346V0H57.6794V0.6H60.5966V0H62.5414V0.6H65.4586V0H67.4034V0.6H70.3206V0H72.2654V0.6H75.1826V0H77.1274V0.6H80.0446V0H81.9895V0.6H84.9067V0H86.8515V0.6H88.3101C88.7871 0.6 89.2622 0.608611 89.735 0.625685L89.7567 0.0260756C90.4015 0.0493578 91.0424 0.0881418 91.679 0.142069L91.6284 0.739928C92.5792 0.820477 93.5204 0.935325 94.4506 1.08323L94.5448 0.490677C95.1812 0.591871 95.8126 0.708308 96.4385 0.839605L96.3154 1.42683C97.2484 1.62253 98.1692 1.85176 99.0765 2.1132L99.2427 1.53666C99.8612 1.7149 100.474 1.90788 101.079 2.1152L100.885 2.68288C101.785 2.99086 102.67 3.33098 103.539 3.70191L103.775 3.15006C104.366 3.40253 104.951 3.66904 105.527 3.94918L105.265 4.48883C106.12 4.9043 106.957 5.35023 107.776 5.82523L108.077 5.3062C108.633 5.6286 109.181 5.96419 109.719 6.31253L109.394 6.81633C110.191 7.33195 110.968 7.87597 111.724 8.44698L112.086 7.96815C112.598 8.35519 113.101 8.75443 113.594 9.16544L113.21 9.62627C113.939 10.2338 114.645 10.8676 115.328 11.526L115.744 11.0941C116.207 11.5396 116.658 11.9963 117.098 12.4637L116.662 12.8751C117.312 13.5652 117.937 14.279 118.537 15.0151L119.002 14.6361C119.407 15.1335 119.801 15.641 120.182 16.158L119.699 16.5142C120.262 17.2764 120.797 18.0597 121.305 18.8628L121.812 18.5423C122.154 19.0843 122.484 19.6352 122.801 20.1945L122.279 20.4903C122.746 21.3137 123.184 22.1558 123.592 23.0151L124.134 22.7578C124.408 23.3366 124.67 23.9232 124.917 24.517L124.363 24.7479C124.727 25.62 125.06 26.508 125.362 27.4107L125.931 27.2205C126.134 27.8276 126.323 28.4412 126.498 29.061L125.92 29.2235C126.176 30.1326 126.4 31.055 126.592 31.9896L127.179 31.8692C127.308 32.4956 127.422 33.1275 127.521 33.7643L126.928 33.8564C127.072 34.7872 127.185 35.7289 127.263 36.6803L127.861 36.6308C127.914 37.2675 127.952 37.9085 127.975 38.5533L127.375 38.5745C127.392 39.0476 127.4 39.5228 127.4 40V41.5371H128V43.5866H127.4V46.6609H128V48.7104H127.4V51.7847H128V53.8342H127.4V56.9084H128V58.9579H127.4V62.0322H128V64.0817H127.4V67.1559H128V69.2055H127.4V72.2797H128V74.3292H127.4V77.4035H128V79.453H127.4V82.5272H128V84.5767H127.4V87.651H128V89.7005H127.4V92.7748H128V94.8243H127.4V97.8985H128V99.948H127.4V103.022H128V105.072H127.4V108.146H128V110.196H127.4V111.733C127.4 112.114 127.377 112.492 127.332 112.866L127.928 112.938C127.863 113.474 127.756 114.001 127.608 114.515L127.032 114.349C126.822 115.079 126.525 115.78 126.149 116.437L126.669 116.735C126.403 117.2 126.099 117.644 125.759 118.063L125.293 117.685C125.056 117.977 124.8 118.257 124.526 118.521L123.442 119.568L123.859 119.999L122.414 121.395L121.997 120.963L119.83 123.057L120.247 123.488L118.802 124.884L118.385 124.452L116.218 126.545L116.635 126.977L115.19 128.373L114.773 127.941L112.605 130.034L113.022 130.466L111.577 131.861L111.16 131.43L108.993 133.523L109.41 133.955L107.965 135.35L107.548 134.919L105.381 137.012L105.798 137.444L104.353 138.839L103.936 138.408L101.768 140.501L102.185 140.932L100.74 142.328L100.323 141.896L98.1561 143.99L98.5729 144.421L97.128 145.817L96.7111 145.385L94.5437 147.479L94.9606 147.91L93.5156 149.306L93.0988 148.874L90.9314 150.967L91.3482 151.399L89.9033 152.795L89.4865 152.363L87.3191 154.456L87.7359 154.888L86.291 156.283L85.8741 155.852L83.7067 157.945L84.1236 158.377L82.6786 159.772L82.2618 159.341L81.1781 160.387C80.909 160.647 80.675 160.937 80.4792 161.249L80.9874 161.568C80.7587 161.932 80.5898 162.331 80.4874 162.75L79.9046 162.607C79.8173 162.964 79.7721 163.333 79.7721 163.707V165.229H80.3721V167.258H79.7721V170.302H80.3721V172.331H79.7721V175.375H80.3721V177.405H79.7721V180.449H80.3721V182.478H79.7721V184C79.7721 184.556 79.6404 185.079 79.4074 185.54L79.9431 185.811C79.5637 186.563 78.9555 187.177 78.211 187.562L77.9356 187.029C77.4764 187.266 76.9561 187.4 76.4031 187.4H74.9573V188H73.0294V187.4H70.1378V188H68.21V187.4H65.3183V188H63.3905V187.4H60.4988V188H58.571V187.4H55.6793V188H53.7515V187.4H50.8598V188H48.932V187.4H46.0403V188H44.1125V187.4H42.6667C42.1137 187.4 41.5934 187.266 41.1342 187.029L40.8588 187.562Z" stroke="#5E5E5E" stroke-width="1.2" stroke-dasharray="3 2"/>
</svg>
