<svg width="228" height="464" viewBox="0 0 228 464" fill="none" xmlns="http://www.w3.org/2000/svg">
<path d="M73.2826 463.454C71.556 462.727 70.1759 461.329 69.4621 459.583L70.3878 459.205C70.0933 458.484 69.9302 457.693 69.9302 456.862V454.965H68.9302V451.173H69.9302V447.381H68.9302V443.588H69.9302V439.796H68.9302V436.004H69.9302V432.212H68.9302V428.419H69.9302V424.627H68.9302V420.835H69.9302V417.042H68.9302V413.25H69.9302V409.458H68.9302V405.665H69.9302V401.873H68.9302V398.081H69.9302V396.185C69.9302 395.353 70.0933 394.562 70.3878 393.842L69.4621 393.463C70.1759 391.717 71.556 390.319 73.2826 389.593L73.6704 390.514C74.3866 390.213 75.1728 390.046 76 390.046H77.8779V389.046H81.6337V390.046H85.3895V389.046H89.1453V390.046H92.9012V389.046H96.657V390.046H100.413V389.046H104.169V390.046H107.924V389.046H111.68V390.046H115.436V389.046H119.192V390.046H122.948V389.046H126.703V390.046H130.459V389.046H134.215V390.046H136.093C136.92 390.046 137.706 390.213 138.423 390.514L138.81 389.592C140.537 390.319 141.917 391.717 142.631 393.463L141.705 393.842C142 394.562 142.163 395.353 142.163 396.185V398.081H143.163V401.873H142.163V405.665H143.163V409.458H142.163V413.25H143.163V417.042H142.163V420.835H143.163V424.627H142.163V428.419H143.163V432.212H142.163V436.004H143.163V439.796H142.163V443.588H143.163V447.381H142.163V451.173H143.163V454.965H142.163V456.862C142.163 457.693 142 458.484 141.705 459.205L142.631 459.583C141.917 461.329 140.537 462.727 138.81 463.454L138.423 462.532C137.706 462.833 136.92 463 136.093 463H134.215V464H130.459V463H126.703V464H122.948V463H119.192V464H115.436V463H111.68V464H107.924V463H104.169V464H100.413V463H96.657V464H92.9012V463H89.1453V464H85.3895V463H81.6337V464H77.8779V463H76C75.1728 463 74.3866 462.833 73.6704 462.532L73.2826 463.454ZM73.2826 334.961C71.556 334.235 70.1759 332.837 69.4621 331.091L70.3878 330.712C70.0933 329.992 69.9302 329.201 69.9302 328.369V326.344H68.9302V322.293H69.9302V318.242H68.9302V314.191H69.9302V310.141H68.9302V306.09H69.9302V302.039H68.9302V297.988H69.9302V293.938H68.9302V289.887H69.9302V285.836H68.9302V281.785H69.9302V277.734H68.9302V273.684H69.9302V269.633H68.9302V265.582H69.9302V263.557C69.9302 263.146 69.9709 262.739 70.0501 262.343L69.0694 262.147C69.2552 261.216 69.6236 260.331 70.1525 259.545L70.9821 260.103C71.2079 259.767 71.4676 259.453 71.7589 259.165L73.1348 257.806L72.4321 257.095L75.1839 254.377L75.8866 255.088L78.6384 252.37L77.9357 251.659L80.6875 248.94L81.3902 249.652L84.142 246.934L83.4393 246.222L86.1911 243.504L86.8938 244.216L89.6456 241.497L88.9429 240.786L91.6947 238.068L92.3974 238.779L95.1492 236.061L94.4465 235.35L97.1983 232.632L97.901 233.343L100.653 230.625L99.9501 229.913L102.702 227.195L103.405 227.907L106.156 225.189L105.454 224.477L108.205 221.759L108.908 222.471L111.66 219.752L110.957 219.041L113.709 216.323L114.412 217.034L117.164 214.316L116.461 213.605L119.213 210.887L119.915 211.598L122.667 208.88L121.965 208.168L124.716 205.45L125.419 206.162L128.171 203.444L127.468 202.732L130.22 200.014L130.923 200.725L133.674 198.007L132.972 197.296L135.724 194.578L136.426 195.289L139.178 192.571L138.475 191.86L141.227 189.141L141.93 189.853L144.682 187.135L143.979 186.423L146.731 183.705L147.433 184.417L148.809 183.058C149.196 182.676 149.541 182.258 149.84 181.814L149.01 181.255C149.539 180.469 149.908 179.584 150.093 178.653L151.074 178.848C151.179 178.324 151.233 177.786 151.233 177.243V175.311H150.233V171.445H151.233V167.58H150.233V163.715H151.233V159.85H150.233V155.984H151.233V152.119H150.233V148.254H151.233V144.389H150.233V140.523H151.233V136.658H150.233V132.793H151.233V128.928H150.233V125.063H151.233V121.197H150.233V117.332H151.233V113.467H150.233V109.602H151.233V105.736H150.233V101.871H151.233V99.9385C151.233 99.2014 151.197 98.4724 151.128 97.7531L150.133 97.8485C149.997 96.4368 149.726 95.0652 149.333 93.7471L150.291 93.461C149.869 92.0475 149.312 90.6929 148.636 89.4125L147.752 89.8793C147.097 88.639 146.325 87.4714 145.451 86.3917L146.228 85.7623C145.308 84.626 144.279 83.5824 143.158 82.6477L142.517 83.4158C141.448 82.5245 140.291 81.7369 139.061 81.0684L139.538 80.1898C138.263 79.4968 136.913 78.9259 135.503 78.4925L135.209 79.4483C133.894 79.0438 132.524 78.765 131.113 78.6257L131.211 77.6305C130.491 77.5594 129.761 77.5231 129.023 77.5231H127.035V78.5231H123.058V77.5231H119.081V78.5231H115.105V77.5231H111.128V78.5231H107.151V77.5231H103.174V78.5231H99.1977V77.5231H97.2093C96.4713 77.5231 95.7414 77.5594 95.0214 77.6305L95.1197 78.6257C93.7091 78.765 92.339 79.0438 91.0231 79.4483L90.7293 78.4925C89.3195 78.9259 87.9694 79.4968 86.6944 80.1898L87.1719 81.0684C85.9417 81.7369 84.7845 82.5245 83.7152 83.4158L83.0749 82.6477C81.9536 83.5824 80.925 84.626 80.0047 85.7623L80.7819 86.3917C79.9074 87.4714 79.1354 88.639 78.4806 89.8793L77.5963 89.4125C76.9203 90.6929 76.3637 92.0475 75.9417 93.461L76.8999 93.7471C76.5063 95.0652 76.2351 96.4368 76.0997 97.8485L75.1043 97.7531C75.0353 98.4724 75 99.2014 75 99.9385V101.872H76V105.738H75V109.605H76V113.472H75V117.338H76V121.205H75V125.072H76V128.938H75V132.805H76V136.672H75V140.538H76V144.405H75V146.338C75 147.17 74.8369 147.961 74.5425 148.681L75.4681 149.06C74.7544 150.806 73.3743 152.204 71.6476 152.931L71.2598 152.009C70.5436 152.31 69.7574 152.477 68.9302 152.477H66.9971V153.477H63.1308V152.477H59.2645V153.477H55.3983V152.477H51.532V153.477H47.6657V152.477H43.7994V153.477H39.9331V152.477H36.0669V153.477H32.2006V152.477H28.3343V153.477H24.468V152.477H20.6017V153.477H16.7355V152.477H12.8692V153.477H9.00291V152.477H7.06977C6.2426 152.477 5.45635 152.31 4.74017 152.009L4.35235 152.931C2.62574 152.204 1.24563 150.806 0.531862 149.06L1.45753 148.681C1.16306 147.961 1 147.17 1 146.338V144.256H0V140.092H1V135.928H0V131.764H1V127.6H0V123.436H1V119.272H0V115.108H1V110.944H0V106.779H1V102.615H0V98.4513H1V94.2872H0V90.1231H1V85.959H0V81.7949H1V77.6308H0V73.4667H1V71.3846C1 70.7255 1.00897 70.0686 1.02678 69.4139L0.027155 69.3867C0.0635075 68.051 0.1362 66.7244 0.244269 65.408L1.24092 65.4898C1.34866 64.1773 1.49207 62.8751 1.67013 61.5841L0.679513 61.4475C0.86186 60.1255 1.08006 58.8151 1.3331 57.5173L2.31462 57.7087C2.56629 56.4179 2.85291 55.1398 3.17343 53.8755L2.20409 53.6297C2.53183 52.3369 2.89452 51.0582 3.2911 49.7947L4.2452 50.0942C4.63882 48.8401 5.06629 47.6012 5.52652 46.3787L4.59064 46.0264C5.06004 44.7795 5.56304 43.5493 6.09853 42.337L7.01327 42.7411C7.54377 41.5401 8.10661 40.3568 8.70068 39.1925L7.80992 38.738C8.41484 37.5523 9.05169 36.386 9.7193 35.2402L10.5833 35.7436C11.2438 34.6101 11.9348 33.4969 12.6552 32.4051L11.8205 31.8543C12.5531 30.7441 13.3157 29.6558 14.1071 28.5905L14.9098 29.1869C15.6918 28.1342 16.5024 27.1044 17.3404 26.0986L16.5721 25.4585C17.423 24.4371 18.3018 23.4401 19.2073 22.4687L19.9388 23.1506C20.8323 22.192 21.7522 21.2588 22.6972 20.352L22.0049 19.6304C22.9636 18.7105 23.9478 17.8175 24.9564 16.9526L25.6074 17.7117C26.6015 16.8591 27.6196 16.0342 28.6605 15.2382L28.0531 14.4438C29.1079 13.6372 30.1858 12.8597 31.2856 12.1126L31.8475 12.9398C32.93 12.2046 34.0339 11.4992 35.1582 10.8249L34.6438 9.9673C35.7816 9.28486 36.94 8.63374 38.1178 8.01511L38.5828 8.90043C39.7403 8.29249 40.9167 7.71641 42.111 7.17333L41.6971 6.26303C42.9039 5.71423 44.1288 5.19863 45.3705 4.71739L45.7319 5.64981C46.9499 5.17775 48.1843 4.73924 49.4341 4.33538L49.1266 3.38383C50.3872 2.97647 51.6632 2.60386 52.9534 2.26712L53.2059 3.23471C54.468 2.90533 55.7439 2.61076 57.0326 2.35207L56.8358 1.37162C58.1324 1.11137 59.4417 0.886917 60.7627 0.699327L60.9033 1.68939C62.1931 1.50624 63.4943 1.35872 64.8059 1.24788L64.7216 0.251432C66.0378 0.140199 67.3642 0.0653729 68.6999 0.0279523L68.7279 1.02756C69.3822 1.00923 70.0389 1 70.6977 1H72.666V0H76.6025V1H80.5391V0H84.4757V1H88.4123V0H92.3489V1H96.2854V0H100.222V1H104.159V0H108.095V1H112.032V0H115.968V1H119.905V0H123.841V1H127.778V0H131.715V1H135.651V0H139.588V1H143.524V0H147.461V1H151.397V0H155.334V1H157.302C157.961 1 158.618 1.00923 159.272 1.02756L159.3 0.0279524C160.636 0.0653731 161.962 0.1402 163.278 0.251432L163.194 1.24788C164.506 1.35873 165.807 1.50624 167.097 1.6894L167.237 0.699327C168.558 0.886917 169.868 1.11137 171.164 1.37163L170.967 2.35207C172.256 2.61076 173.532 2.90533 174.794 3.23471L175.047 2.26712C176.337 2.60386 177.613 2.97647 178.873 3.38383L178.566 4.33538C179.816 4.73924 181.05 5.17776 182.268 5.64981L182.63 4.71739C183.871 5.19864 185.096 5.71423 186.303 6.26303L185.889 7.17333C187.083 7.71642 188.26 8.2925 189.417 8.90043L189.882 8.01512C191.06 8.63375 192.218 9.28487 193.356 9.96731L192.842 10.8249C193.966 11.4992 195.07 12.2046 196.152 12.9398L196.714 12.1126C197.814 12.8597 198.892 13.6372 199.947 14.4438L199.339 15.2382C200.38 16.0342 201.398 16.8591 202.393 17.7117L203.044 16.9526C204.052 17.8175 205.036 18.7105 205.995 19.6304L205.303 20.352C206.248 21.2588 207.168 22.192 208.061 23.1506L208.793 22.4687C209.698 23.4401 210.577 24.4371 211.428 25.4585L210.66 26.0986C211.498 27.1044 212.308 28.1342 213.09 29.1869L213.893 28.5905C214.684 29.6558 215.447 30.7441 216.179 31.8543L215.345 32.4051C216.065 33.4969 216.756 34.6101 217.417 35.7436L218.281 35.2402C218.948 36.386 219.585 37.5523 220.19 38.738L219.299 39.1925C219.893 40.3568 220.456 41.5401 220.987 42.7411L221.901 42.337C222.437 43.5493 222.94 44.7795 223.409 46.0264L222.473 46.3787C222.934 47.6012 223.361 48.8401 223.755 50.0942L224.709 49.7947C225.105 51.0582 225.468 52.3369 225.796 53.6297L224.827 53.8755C225.147 55.1398 225.434 56.4179 225.685 57.7087L226.667 57.5173C226.92 58.8151 227.138 60.1255 227.32 61.4475L226.33 61.5841C226.508 62.8751 226.651 64.1773 226.759 65.4898L227.756 65.408C227.864 66.7244 227.936 68.051 227.973 69.3867L226.973 69.4139C226.991 70.0686 227 70.7255 227 71.3846V73.3849H228V77.3854H227V81.3858H228V85.3863H227V89.3868H228V93.3873H227V97.3877H228V101.388H227V105.389H228V109.389H227V113.39H228V117.39H227V121.391H228V125.391H227V129.392H228V133.392H227V137.392H228V141.393H227V145.393H228V149.394H227V153.394H228V157.395H227V161.395H228V165.396H227V169.396H228V173.397H227V177.397H228V181.398H227V185.398H228V189.399H227V193.399H228V197.4H227V199.4C227 199.968 226.972 200.533 226.916 201.094L227.911 201.193C227.791 202.392 227.551 203.569 227.2 204.708L226.244 204.414C225.91 205.496 225.469 206.541 224.928 207.534L225.805 208.013C225.234 209.061 224.556 210.053 223.78 210.973L223.016 210.328C222.653 210.758 222.267 211.171 221.859 211.566L220.374 213.003L221.07 213.721L218.1 216.595L217.405 215.876L214.435 218.75L215.13 219.469L212.16 222.342L211.465 221.624L208.495 224.497L209.191 225.216L206.221 228.09L205.526 227.371L202.556 230.245L203.251 230.963L200.281 233.837L199.586 233.118L196.616 235.992L197.312 236.711L194.342 239.584L193.647 238.866L190.677 241.739L191.372 242.458L188.402 245.332L187.707 244.613L184.737 247.487L185.433 248.205L182.463 251.079L181.768 250.36L178.798 253.234L179.493 253.953L176.523 256.826L175.828 256.108L172.858 258.982L173.554 259.7L170.584 262.574L169.888 261.855L166.919 264.729L167.614 265.447L164.644 268.321L163.949 267.603L160.979 270.476L161.675 271.195L158.705 274.068L158.009 273.35L155.04 276.224L155.735 276.942L152.765 279.816L152.07 279.097L149.1 281.971L149.796 282.689L146.826 285.563L146.13 284.845L144.646 286.281C144.25 286.664 143.897 287.084 143.591 287.532L144.416 288.096C143.874 288.888 143.496 289.783 143.306 290.726L142.325 290.528C142.218 291.059 142.163 291.604 142.163 292.154V293.965H143.163V297.586H142.163V301.208H143.163V304.829H142.163V308.451H143.163V312.072H142.163V315.694H143.163V319.315H142.163V322.937H143.163V326.558H142.163V328.369C142.163 329.201 142 329.992 141.705 330.712L142.631 331.091C141.917 332.837 140.537 334.235 138.81 334.961L138.423 334.04C137.706 334.341 136.92 334.508 136.093 334.508H134.215V335.508H130.459V334.508H126.703V335.508H122.948V334.508H119.192V335.508H115.436V334.508H111.68V335.508H107.924V334.508H104.169V335.508H100.413V334.508H96.657V335.508H92.9012V334.508H89.1453V335.508H85.3895V334.508H81.6337V335.508H77.8779V334.508H76C75.1728 334.508 74.3866 334.341 73.6704 334.04L73.2826 334.961Z" stroke="#5E5E5E" stroke-width="2" stroke-dasharray="4 4"/>
</svg>
