<svg width="83" height="171" viewBox="0 0 83 171" fill="none" xmlns="http://www.w3.org/2000/svg">
<path d="M25.093 146.008C25.093 144.555 26.2453 143.377 27.6667 143.377H49.5426C50.964 143.377 52.1163 144.555 52.1163 146.008V168.369C52.1163 169.822 50.964 171 49.5426 171H27.6667C26.2453 171 25.093 169.822 25.093 168.369V146.008Z" fill="#D1D1D1"/>
<path d="M25.093 97.1298C25.093 96.422 25.372 95.7441 25.8669 95.2492L53.916 67.2008C54.4109 66.7059 54.6899 66.028 54.6899 65.3203V36.8308C54.6899 32.472 51.2331 28.9385 46.969 28.9385H35.3876C31.1234 28.9385 27.6667 32.472 27.6667 36.8308V53.9308C27.6667 55.3837 26.5144 56.5615 25.093 56.5615H2.57364C1.15226 56.5615 0 55.3837 0 53.9308V26.3077C0 11.7784 11.5226 0 25.7364 0H57.2636C71.4774 0 83 11.7784 83 26.3077V73.4857C83 75.2786 82.284 76.9937 81.0177 78.2342L52.9092 105.769C52.4027 106.266 52.1163 106.952 52.1163 107.669V121.015C52.1163 122.468 50.964 123.646 49.5426 123.646H27.6667C26.2453 123.646 25.093 122.468 25.093 121.015V97.1298Z" fill="#D1D1D1"/>
</svg>
