<svg width="128" height="259" viewBox="0 0 128 259" fill="none" xmlns="http://www.w3.org/2000/svg">
<path d="M38.6977 221.146C38.6977 218.946 40.4747 217.162 42.6667 217.162H76.4031C78.5951 217.162 80.3721 218.946 80.3721 221.146V255.015C80.3721 257.216 78.5951 259 76.4031 259H42.6667C40.4747 259 38.6977 257.216 38.6977 255.015V221.146Z" fill="#D1D1D1"/>
<path d="M38.6977 147.115C38.6977 146.043 39.1279 145.016 39.8912 144.266L83.1476 101.784C83.9109 101.034 84.3411 100.007 84.3411 98.9353V55.7846C84.3411 49.1827 79.0101 43.8308 72.4341 43.8308H54.5736C47.9976 43.8308 42.6667 49.1827 42.6667 55.7846V81.6846C42.6667 83.8853 40.8897 85.6692 38.6977 85.6692H3.96899C1.77698 85.6692 0 83.8853 0 81.6846V39.8462C0 17.8397 17.7698 0 39.6899 0H88.3101C110.23 0 128 17.8397 128 39.8462V111.303C128 114.018 126.896 116.616 124.943 118.495L81.5949 160.2C80.8138 160.952 80.3721 161.991 80.3721 163.077V183.292C80.3721 185.493 78.5951 187.277 76.4031 187.277H42.6667C40.4747 187.277 38.6977 185.493 38.6977 183.292V147.115Z" fill="#D1D1D1"/>
</svg>
