<svg width="41" height="82" viewBox="0 0 41 82" fill="none" xmlns="http://www.w3.org/2000/svg">
<path d="M12.3953 70.0154C12.3953 69.3187 12.9645 68.7538 13.6667 68.7538H24.4729C25.175 68.7538 25.7442 69.3187 25.7442 70.0154V80.7385C25.7442 81.4352 25.175 82 24.4729 82H13.6667C12.9645 82 12.3953 81.4352 12.3953 80.7385V70.0154Z" fill="#D1D1D1"/>
<path d="M12.3953 46.5768C12.3953 46.2375 12.5332 45.9124 12.7776 45.675L26.6332 32.225C26.8777 31.9876 27.0155 31.6625 27.0155 31.3232V17.6615C27.0155 15.5714 25.3079 13.8769 23.2016 13.8769H17.4806C15.3742 13.8769 13.6667 15.5714 13.6667 17.6615V25.8615C13.6667 26.5583 13.0975 27.1231 12.3953 27.1231H1.27132C0.569188 27.1231 0 26.5583 0 25.8615V12.6154C0 5.6481 5.69188 0 12.7132 0H28.2868C35.3081 0 41 5.6481 41 12.6154V35.2388C41 36.0985 40.6463 36.921 40.0208 37.5158L26.1359 50.7198C25.8857 50.9578 25.7442 51.2868 25.7442 51.6306V58.0308C25.7442 58.7275 25.175 59.2923 24.4729 59.2923H13.6667C12.9645 59.2923 12.3953 58.7275 12.3953 58.0308V46.5768Z" fill="#D1D1D1"/>
</svg>
