<svg width="60" height="120" viewBox="0 0 60 120" fill="none" xmlns="http://www.w3.org/2000/svg">
<path d="M18.1395 102.462C18.1395 101.442 18.9725 100.615 20 100.615H35.814C36.8415 100.615 37.6744 101.442 37.6744 102.462V118.154C37.6744 119.173 36.8415 120 35.814 120H20C18.9725 120 18.1395 119.173 18.1395 118.154V102.462Z" fill="#D60808"/>
<path d="M18.1395 68.1612C18.1395 67.6646 18.3412 67.1888 18.699 66.8415L38.9754 47.1585C39.3332 46.8111 39.5349 46.3354 39.5349 45.8388V25.8462C39.5349 22.7873 37.036 20.3077 33.9535 20.3077H25.5814C22.4989 20.3077 20 22.7873 20 25.8462V37.8462C20 38.8658 19.167 39.6923 18.1395 39.6923H1.86046C0.832958 39.6923 0 38.8658 0 37.8462V18.4615C0 8.26551 8.32959 0 18.6047 0H41.3954C51.6704 0 60 8.26551 60 18.4615V51.5689C60 52.8271 59.4824 54.0307 58.567 54.9012L38.2476 74.2241C37.8815 74.5723 37.6744 75.0538 37.6744 75.557V84.9231C37.6744 85.9427 36.8415 86.7692 35.814 86.7692H20C18.9725 86.7692 18.1395 85.9427 18.1395 84.9231V68.1612Z" fill="#D60808"/>
</svg>
