<svg width="32" height="63" viewBox="0 0 32 63" fill="none" xmlns="http://www.w3.org/2000/svg">
<path d="M9.67442 53.7923C9.67442 53.257 10.1187 52.8231 10.6667 52.8231H19.1008C19.6488 52.8231 20.093 53.257 20.093 53.7923V62.0308C20.093 62.5661 19.6488 63 19.1008 63H10.6667C10.1187 63 9.67442 62.5661 9.67442 62.0308V53.7923Z" fill="#D60808"/>
<path d="M9.67442 35.7846C9.67442 35.5239 9.78197 35.2741 9.97279 35.0918L20.7869 24.7582C20.9777 24.5759 21.0853 24.3261 21.0853 24.0654V13.5692C21.0853 11.9634 19.7525 10.6615 18.1085 10.6615H13.6434C11.9994 10.6615 10.6667 11.9634 10.6667 13.5692V19.8692C10.6667 20.4045 10.2224 20.8385 9.67442 20.8385H0.992248C0.444244 20.8385 0 20.4045 0 19.8692V9.69231C0 4.33939 4.44245 0 9.92248 0H22.0775C27.5576 0 32 4.33939 32 9.69231V27.0737C32 27.7342 31.7239 28.3661 31.2357 28.8231L20.3987 38.9677C20.2034 39.1505 20.093 39.4032 20.093 39.6674V44.5846C20.093 45.1199 19.6488 45.5538 19.1008 45.5538H10.6667C10.1187 45.5538 9.67442 45.1199 9.67442 44.5846V35.7846Z" fill="#D60808"/>
</svg>
