<svg width="206" height="121" viewBox="0 0 206 121" fill="none" xmlns="http://www.w3.org/2000/svg">
<path d="M50.6941 74.3765C50.1103 74.3765 49.8184 74.6687 49.8184 75.2532V82.909C49.8184 83.4934 50.1103 83.7856 50.6941 83.7856H62.3702V119.201C62.3702 119.844 62.6621 120.136 63.2459 120.136H72.2949C72.8787 120.136 73.1706 119.844 73.1706 119.201V83.7856H84.9052C85.5473 83.7856 85.8392 83.4934 85.8392 82.909V75.2532C85.8392 74.6687 85.5473 74.3765 84.9052 74.3765H50.6941Z" fill="white"/>
<path d="M91.5263 74.3765C90.9425 74.3765 90.6506 74.6687 90.6506 75.3116V110.136C90.6506 115.659 95.1278 120.136 100.651 120.136H119.607C120.191 120.136 120.483 119.844 120.483 119.26V111.604C120.483 111.019 120.191 110.727 119.607 110.727H101.451V75.3116C101.451 74.6687 101.159 74.3765 100.575 74.3765H91.5263Z" fill="white"/>
<path d="M143.122 74.0259C135.532 74.0259 130.395 75.6038 127.768 78.8181C125.14 82.0324 123.856 88.1103 123.856 97.1687C123.856 106.461 124.79 111.779 127.768 115.519C130.803 119.201 135.357 120.428 143.122 120.428C148.084 120.428 152.054 120.078 154.915 119.377C155.907 119.143 156.432 118.558 156.432 117.565V111.896C156.432 111.312 156.141 111.019 155.557 111.019H143.122C139.677 111.019 137.459 110.084 136.349 108.156C135.299 106.227 134.773 102.604 134.773 97.1687C134.773 91.7337 135.299 88.1103 136.349 86.2402C137.459 84.37 139.677 83.435 143.122 83.435H155.557C156.141 83.435 156.432 83.1428 156.432 82.5584V76.8895C156.432 75.7791 156.024 75.37 154.915 75.0778C151.82 74.3765 147.85 74.0259 143.122 74.0259Z" fill="white"/>
<path d="M56.6094 12.0779C85.457 13.6364 99.6481 32.7273 102.75 41.2987C105.852 32.7273 120.043 13.6364 148.891 12.0779C184.95 10.1299 193.868 9.35065 205.5 0C200.847 17.5325 183.399 26.4935 156.258 28.0519C129.116 29.6104 120.198 36.2338 115.158 42.0779C107.429 51.039 108.977 58.4416 102.75 67.013C96.5227 58.4416 98.0713 51.039 90.3425 42.0779C85.3019 36.2338 76.384 29.6104 49.2425 28.0519C22.1009 26.4935 4.65283 17.5325 0 0C11.6321 9.35065 20.55 10.1299 56.6094 12.0779Z" fill="#D60808"/>
<path d="M70.8354 49.0912C64.1914 45.9144 62.2729 39.3509 61.8837 34.6756C67.3326 35.4548 71.2247 35.8444 75.5059 38.5717C78.6195 40.5552 80.1764 45.5847 90.2957 47.1835C87.9604 51.0392 76.2117 51.6617 70.8354 49.0912Z" fill="white"/>
<path d="M42.8127 32.7275C46.3156 32.7275 48.6508 32.7275 55.2672 33.5068C54.878 48.7016 64.6082 54.9353 70.8354 56.1042C46.7048 61.5587 41.2559 42.0782 42.8127 32.7275Z" fill="white"/>
<path d="M134.665 49.0912C141.309 45.9144 143.227 39.3509 143.616 34.6756C138.167 35.4548 134.275 35.8444 129.994 38.5717C126.88 40.5552 125.324 45.5847 115.204 47.1835C117.54 51.0392 129.288 51.6617 134.665 49.0912Z" fill="white"/>
<path d="M162.687 32.7275C159.184 32.7275 156.849 32.7275 150.233 33.5068C150.622 48.7016 140.892 54.9353 134.665 56.1042C158.795 61.5587 164.244 42.0782 162.687 32.7275Z" fill="white"/>
</svg>
