<svg width="24" height="24" viewBox="0 0 24 24" fill="none" xmlns="http://www.w3.org/2000/svg">
<g clip-path="url(#clip0)">
<path d="M12.8198 9.61799C5.57781 13.35 10.3948 23.363 19.4298 20.749C20.2718 21.076 21.0218 21.606 21.8378 22C21.6268 21.29 21.4018 20.588 21.1618 19.889C23.9618 17.894 24.5758 15.071 23.5408 12.751C21.9248 9.07399 16.7648 7.56799 12.8198 9.61799ZM15.3498 13.276C15.1408 13.931 14.1938 14.127 13.7348 13.629C13.2288 13.168 13.4258 12.205 14.0898 11.999C14.8238 11.689 15.6718 12.54 15.3498 13.276ZM20.1298 13.37H20.1438C19.8868 13.957 19.0028 14.095 18.5688 13.64C18.3598 13.448 18.2988 13.159 18.2248 12.907C18.3288 12.447 18.6448 11.97 19.1548 11.948C19.8598 11.85 20.4908 12.724 20.1298 13.37Z" fill="white"/>
<path d="M17.4138 8.24753C16.9778 6.10353 15.4778 4.29253 13.5898 3.24753H13.6168V3.24653C6.9168 -0.539468 -1.4252 4.74153 0.186805 10.9695C0.619804 12.8175 1.8978 14.3665 3.4488 15.4005C3.1488 16.2535 2.8638 17.1065 2.5938 17.9655C3.5688 17.4535 4.5438 16.9185 5.5198 16.3985C6.6898 16.7755 7.9348 16.9595 9.1798 16.9185C7.6418 12.5065 11.5868 7.83253 17.4138 8.24753ZM11.3368 5.68653C12.1218 5.37053 13.0498 6.03153 12.9878 6.87653L12.9898 6.88853C12.9978 7.85353 11.7148 8.45553 10.9948 7.80153C10.2478 7.26353 10.4598 5.95653 11.3368 5.68653ZM6.9318 7.13353C6.7598 7.97153 5.6408 8.37653 4.9858 7.81353C4.2268 7.27653 4.4398 5.94553 5.3308 5.67453C6.2038 5.33653 7.1958 6.22653 6.9318 7.13353Z" fill="white"/>
</g>
<defs>
<clipPath id="clip0">
<rect width="24" height="24" fill="white"/>
</clipPath>
</defs>
</svg>
