<svg width="24" height="24" viewBox="0 0 24 24" fill="none" xmlns="http://www.w3.org/2000/svg">
<path d="M12.0026 0.799805H11.997C5.8216 0.799805 0.799805 5.823 0.799805 11.9998C0.799805 14.4498 1.5894 16.7206 2.932 18.5644L1.5362 22.7252L5.8412 21.349C7.6122 22.5222 9.7248 23.1998 12.0026 23.1998C18.178 23.1998 23.1998 18.1752 23.1998 11.9998C23.1998 5.8244 18.178 0.799805 12.0026 0.799805Z" fill="white"/>
<path d="M18.9848 16.9458C18.6953 17.7633 17.5463 18.4413 16.6298 18.6393C16.0028 18.7728 15.1838 18.8793 12.4268 17.7363C8.90034 16.2753 6.62934 12.6918 6.45234 12.4593C6.28284 12.2268 5.02734 10.5618 5.02734 8.83977C5.02734 7.11777 5.90184 6.27927 6.25434 5.91927C6.54384 5.62377 7.02234 5.48877 7.48134 5.48877C7.62984 5.48877 7.76334 5.49627 7.88334 5.50227C8.23584 5.51727 8.41284 5.53827 8.64534 6.09477C8.93484 6.79227 9.63984 8.51427 9.72384 8.69127C9.80934 8.86827 9.89485 9.10827 9.77484 9.34077C9.66234 9.58077 9.56334 9.68726 9.38634 9.89126C9.20934 10.0953 9.04134 10.2513 8.86434 10.4703C8.70234 10.6608 8.51934 10.8648 8.72334 11.2173C8.92734 11.5623 9.63234 12.7128 10.6703 13.6368C12.0098 14.8293 13.0958 15.2103 13.4843 15.3723C13.7738 15.4923 14.1188 15.4638 14.3303 15.2388C14.5988 14.9493 14.9303 14.4693 15.2678 13.9968C15.5078 13.6578 15.8108 13.6158 16.1288 13.7358C16.4528 13.8483 18.1673 14.6958 18.5198 14.8713C18.8723 15.0483 19.1048 15.1323 19.1903 15.2808C19.2743 15.4293 19.2743 16.1268 18.9848 16.9458Z" fill="#202020"/>
</svg>
