<svg width="137" height="81" viewBox="0 0 137 81" fill="none" xmlns="http://www.w3.org/2000/svg">
<path d="M33.7957 49.5844C33.4065 49.5844 33.2119 49.7792 33.2119 50.1688V55.2727C33.2119 55.6623 33.4065 55.8571 33.7957 55.8571H41.5798V79.4675C41.5798 79.896 41.7744 80.0909 42.1636 80.0909H48.1963C48.5855 80.0909 48.7801 79.896 48.7801 79.4675V55.8571H56.6031C57.0312 55.8571 57.2258 55.6623 57.2258 55.2727V50.1688C57.2258 49.7792 57.0312 49.5844 56.6031 49.5844H33.7957Z" fill="black"/>
<path d="M61.0172 49.5844C60.628 49.5844 60.4334 49.7792 60.4334 50.2077V75.0909C60.4334 77.8523 62.672 80.0909 65.4334 80.0909H79.738C80.1272 80.0909 80.3218 79.896 80.3218 79.5064V74.4025C80.3218 74.0129 80.1272 73.8181 79.738 73.8181H67.6337V50.2077C67.6337 49.7792 67.4391 49.5844 67.0499 49.5844H61.0172Z" fill="black"/>
<path d="M95.4141 49.3506C90.3544 49.3506 86.9295 50.4025 85.178 52.5454C83.4266 54.6883 82.5704 58.7402 82.5704 64.7792C82.5704 70.974 83.1931 74.5194 85.178 77.0129C87.2019 79.4675 90.2377 80.2857 95.4141 80.2857C98.7224 80.2857 101.369 80.0519 103.276 79.5844C103.938 79.4285 104.288 79.0389 104.288 78.3766V74.5973C104.288 74.2077 104.093 74.0129 103.704 74.0129H95.4141C93.1178 74.0129 91.6388 73.3896 90.8993 72.1038C90.1988 70.8181 89.8485 68.4025 89.8485 64.7792C89.8485 61.1558 90.1988 58.7402 90.8993 57.4934C91.6388 56.2467 93.1178 55.6233 95.4141 55.6233H103.704C104.093 55.6233 104.288 55.4285 104.288 55.0389V51.2597C104.288 50.5194 104.016 50.2467 103.276 50.0519C101.213 49.5844 98.5667 49.3506 95.4141 49.3506Z" fill="black"/>
<path d="M37.7396 8.05195C56.9713 9.09091 66.4321 21.8182 68.5 27.5325C70.5679 21.8182 80.0287 9.09091 99.2604 8.05195C123.3 6.75325 129.245 6.23377 137 0C133.898 11.6883 122.266 17.6623 104.172 18.7013C86.0774 19.7403 80.1321 24.1558 76.7717 28.0519C71.6191 34.026 72.6515 38.961 68.5 44.6753C64.3485 38.961 65.3809 34.026 60.2283 28.0519C56.8679 24.1558 50.9226 19.7403 32.8283 18.7013C14.734 17.6623 3.10189 11.6883 0 0C7.75472 6.23377 13.7 6.75325 37.7396 8.05195Z" fill="#D60808"/>
<path d="M47.2233 32.7275C42.794 30.6096 41.515 26.2339 41.2555 23.1171C44.8881 23.6365 47.4828 23.8963 50.3369 25.7145C52.4127 27.0368 53.4506 30.3898 60.1968 31.4557C58.64 34.0262 50.8074 34.4412 47.2233 32.7275Z" fill="black"/>
<path d="M28.5415 21.8184C30.8767 21.8184 32.4335 21.8184 36.8445 22.3378C36.585 32.4677 43.0718 36.6236 47.2233 37.4028C31.1362 41.0391 27.5036 28.0521 28.5415 21.8184Z" fill="black"/>
<path d="M89.7767 32.7275C94.206 30.6096 95.485 26.2339 95.7445 23.1171C92.1119 23.6365 89.5172 23.8963 86.6631 25.7145C84.5873 27.0368 83.5494 30.3898 76.8032 31.4557C78.36 34.0262 86.1926 34.4412 89.7767 32.7275Z" fill="black"/>
<path d="M108.459 21.8184C106.123 21.8184 104.566 21.8184 100.155 22.3378C100.415 32.4677 93.9282 36.6236 89.7767 37.4028C105.864 41.0391 109.496 28.0521 108.459 21.8184Z" fill="black"/>
</svg>
