<svg width="20" height="20" viewBox="0 0 20 20" fill="none" xmlns="http://www.w3.org/2000/svg">
<path d="M11.1047 10.001L19.7709 1.33469C20.0761 1.02958 20.0761 0.534892 19.7709 0.229814C19.4658 -0.0752635 18.9711 -0.0753026 18.6661 0.229814L9.99975 8.89613L1.33347 0.229814C1.02836 -0.0753026 0.533671 -0.0753026 0.228593 0.229814C-0.0764842 0.534931 -0.0765233 1.02962 0.228593 1.33469L8.89487 10.001L0.228593 18.6673C-0.0765233 18.9724 -0.0765233 19.4671 0.228593 19.7722C0.381132 19.9247 0.581093 20.0009 0.781053 20.0009C0.981014 20.0009 1.18094 19.9247 1.33351 19.7722L9.99975 11.1059L18.666 19.7722C18.8186 19.9247 19.0185 20.0009 19.2185 20.0009C19.4184 20.0009 19.6184 19.9247 19.7709 19.7722C20.0761 19.467 20.0761 18.9724 19.7709 18.6673L11.1047 10.001Z" fill="black"/>
</svg>
