<svg width="16" height="16" viewBox="0 0 16 16" fill="none" xmlns="http://www.w3.org/2000/svg">
<g clip-path="url(#clip0)">
<path d="M9.59996 0H6.39955C3.31127 0 0.798828 2.51244 0.798828 5.60072V8.00103C0.798828 10.1692 2.04927 12.1368 3.99924 13.0623V15.7353C3.99924 15.9674 4.28958 16.0888 4.45452 15.9239L6.77668 13.6018H9.59993C12.6882 13.6018 15.2007 11.0893 15.2007 8.00103V5.60072C15.2007 2.51244 12.6882 0 9.59996 0Z" fill="black"/>
<path d="M6.54886 5.74583L6.80961 5.48466L6.80989 5.48438L6.54883 5.7458L6.54886 5.74583Z" fill="#E5E5E5"/>
<path d="M9.45003 8.12419L9.18652 8.3877L9.18657 8.38774L9.45007 8.12423L9.45003 8.12419Z" fill="#E5E5E5"/>
<path d="M8.53329 4.53418C8.38601 4.53418 8.2666 4.65359 8.2666 4.80087C8.2666 4.94815 8.38601 5.06755 8.53329 5.06755C9.12154 5.06755 9.6001 5.54612 9.6001 6.13437C9.6001 6.27968 9.72148 6.40105 9.86679 6.40105C10.0121 6.40105 10.1335 6.27968 10.1335 6.13437C10.1335 5.25199 9.41566 4.53418 8.53329 4.53418Z" fill="white"/>
<path d="M8.53345 3.4668C8.43479 3.4668 8.33523 3.47227 8.23748 3.48305C8.09107 3.4992 7.98548 3.63098 8.00163 3.77742C8.01779 3.92386 8.14985 4.02917 8.29601 4.01327C8.37438 4.00461 8.45426 4.0002 8.53345 4.0002C9.70992 4.0002 10.667 4.95733 10.667 6.1338C10.667 6.21302 10.6626 6.29289 10.654 6.37127C10.638 6.51567 10.7454 6.64973 10.8898 6.66564C11.0343 6.68155 11.1682 6.57427 11.1842 6.4298C11.195 6.33205 11.2004 6.23248 11.2004 6.1338C11.2004 4.66323 10.004 3.4668 8.53345 3.4668Z" fill="white"/>
<path d="M8.53441 2.40039C8.43909 2.40039 8.34256 2.40402 8.24756 2.41123C8.10069 2.42236 7.99063 2.55048 8.00175 2.69733C8.01284 2.8442 8.14141 2.95427 8.28784 2.94314C8.3695 2.93692 8.45247 2.9338 8.53441 2.9338C10.2991 2.9338 11.7348 4.36948 11.7348 6.1342C11.7348 6.38389 11.706 6.63245 11.6492 6.87295C11.6166 7.01077 11.7015 7.15402 11.8381 7.19145C11.9819 7.23083 12.134 7.14067 12.1683 6.99564C12.2346 6.71498 12.2682 6.42517 12.2682 6.1342C12.2682 4.07536 10.5933 2.40039 8.53441 2.40039Z" fill="white"/>
<path d="M12.4995 10.172C12.3094 10.7075 11.5548 11.1516 10.9529 11.2813C10.5411 11.3687 10.0032 11.4385 8.19259 10.6898C5.87658 9.73274 4.38511 7.38535 4.26887 7.23305C4.15755 7.08075 3.33301 5.99008 3.33301 4.86208C3.33301 3.73408 3.90733 3.18481 4.13883 2.94899C4.32896 2.75542 4.64321 2.66699 4.94466 2.66699C5.04218 2.66699 5.12986 2.67191 5.20867 2.67584C5.44017 2.68566 5.55642 2.69942 5.70911 3.06396C5.89924 3.52086 6.36224 4.64886 6.41741 4.7648C6.47356 4.88075 6.52971 5.03796 6.4509 5.19026C6.37702 5.34748 6.312 5.41724 6.19576 5.55087C6.07951 5.6845 5.96918 5.78669 5.85294 5.93015C5.74654 6.05493 5.62636 6.18856 5.76033 6.41947C5.89431 6.64547 6.35732 7.3991 7.03902 8.00437C7.91873 8.78553 8.63195 9.0351 8.88709 9.14122C9.07722 9.21983 9.3038 9.20116 9.4427 9.05377C9.61904 8.86413 9.83675 8.54971 10.0584 8.2402C10.216 8.01813 10.415 7.99062 10.6239 8.06923C10.8366 8.14292 11.9626 8.69808 12.1941 8.81304C12.4256 8.92898 12.5783 8.98401 12.6345 9.08128C12.6896 9.17856 12.6896 9.63546 12.4995 10.172Z" fill="#FAFAFA"/>
</g>
<defs>
<clipPath id="clip0">
<rect width="16" height="16" fill="white"/>
</clipPath>
</defs>
</svg>
