<svg width="165" height="140" viewBox="0 0 165 140" fill="none" xmlns="http://www.w3.org/2000/svg">
<path fill-rule="evenodd" clip-rule="evenodd" d="M161.245 140C162.305 140 163.285 139.429 163.813 138.508C164.341 137.583 164.33 136.449 163.793 135.536L84.6499 1.45692C84.1176 0.551686 83.1502 0 82.1012 0H82.1012C82.0546 0 82.0041 0 81.9575 0.00388298C80.9668 0.0505043 80.0616 0.594422 79.5526 1.45692L0.408993 135.536C-0.127152 136.449 -0.138808 137.583 0.389568 138.508C0.917943 139.429 1.89699 140 2.95763 140H161.245ZM140.514 128.162C141.574 128.162 142.557 127.595 143.082 126.67C143.61 125.75 143.602 124.615 143.062 123.698L84.6498 24.7406C84.1175 23.8393 83.1501 23.2837 82.1012 23.2837C81.0561 23.2837 80.0848 23.8393 79.5525 24.7406L21.1399 123.698C20.5998 124.615 20.5921 125.75 21.1204 126.67C21.6449 127.595 22.6279 128.162 23.6885 128.162H140.514Z" fill="white"/>
<path d="M89.9923 64.1543V86.1285C89.9923 90.4798 86.4529 94.0192 82.1016 94.0192C80.8622 94.0192 79.6928 93.7317 78.6477 93.2188C76.0214 91.9406 74.2109 89.2405 74.2109 86.1285V64.1543C74.2109 61.0424 76.0214 58.3461 78.6477 57.064C79.6928 56.5512 80.8622 56.2637 82.1016 56.2637C86.4529 56.2637 89.9923 59.8069 89.9923 64.1543Z" fill="white"/>
<path d="M89.9923 107.054C89.9923 111.405 86.4529 114.944 82.1016 114.944C80.9866 114.944 79.9259 114.711 78.9663 114.292C76.169 113.08 74.2109 110.29 74.2109 107.054C74.2109 103.817 76.169 101.028 78.9663 99.8158C79.9259 99.3962 80.9866 99.1631 82.1016 99.1631C86.4529 99.1631 89.9923 102.702 89.9923 107.054Z" fill="white"/>
</svg>
