<svg width="16" height="16" viewBox="0 0 16 16" fill="none" xmlns="http://www.w3.org/2000/svg">
<path d="M8.00174 0.53418H7.998C3.88107 0.53418 0.533203 3.88298 0.533203 8.00085C0.533203 9.63418 1.0596 11.148 1.95467 12.3772L1.02414 15.1511L3.89414 14.2336C5.0748 15.0158 6.4832 15.4675 8.00174 15.4675C12.1187 15.4675 15.4665 12.1178 15.4665 8.00085C15.4665 3.88391 12.1187 0.53418 8.00174 0.53418Z" fill="black"/>
<path d="M12.6566 11.2972C12.4636 11.8422 11.6976 12.2942 11.0866 12.4262C10.6686 12.5152 10.1226 12.5862 8.28456 11.8242C5.93356 10.8502 4.41956 8.46118 4.30156 8.30618C4.18856 8.15118 3.35156 7.04118 3.35156 5.89318C3.35156 4.74518 3.93456 4.18618 4.16956 3.94618C4.36256 3.74918 4.68156 3.65918 4.98756 3.65918C5.08656 3.65918 5.17556 3.66418 5.25556 3.66818C5.49056 3.67818 5.60856 3.69218 5.76356 4.06318C5.95656 4.52818 6.42656 5.67618 6.48256 5.79418C6.53956 5.91218 6.59656 6.07218 6.51656 6.22718C6.44156 6.38718 6.37556 6.45818 6.25756 6.59418C6.13956 6.73018 6.02756 6.83418 5.90956 6.98018C5.80156 7.10718 5.67956 7.24318 5.81556 7.47818C5.95156 7.70818 6.42156 8.47517 7.11356 9.09117C8.00656 9.88617 8.73056 10.1402 8.98956 10.2482C9.18256 10.3282 9.41256 10.3092 9.55356 10.1592C9.73256 9.96617 9.95356 9.64617 10.1786 9.33117C10.3386 9.10518 10.5406 9.07717 10.7526 9.15717C10.9686 9.23217 12.1116 9.79717 12.3466 9.91417C12.5816 10.0322 12.7366 10.0882 12.7936 10.1872C12.8496 10.2862 12.8496 10.7512 12.6566 11.2972Z" fill="#FAFAFA"/>
</svg>
