<svg width="16" height="16" viewBox="0 0 16 16" fill="none" xmlns="http://www.w3.org/2000/svg">
<path d="M6.40583 8.93527H4.15611C4.05755 8.93527 3.97231 8.9712 3.90033 9.04311C3.82821 9.11508 3.7925 9.20036 3.7925 9.29891V10.4806C3.7925 10.5866 3.82839 10.6737 3.90033 10.742C3.97228 10.8103 4.05755 10.844 4.15611 10.844H6.70021V11.8098H4.15611C4.05755 11.8098 3.97231 11.8463 3.90033 11.9183C3.82821 11.9902 3.7925 12.0754 3.7925 12.174V13.344C3.7925 13.4506 3.82839 13.5375 3.90033 13.6054C3.97228 13.6737 4.05755 13.708 4.15611 13.708H6.70021V15.6364C6.70021 15.7424 6.7361 15.8295 6.80805 15.8974C6.87999 15.9657 6.96527 16 7.06379 16H9.01841C9.11679 16 9.20204 15.9641 9.27419 15.8922C9.34613 15.8202 9.38221 15.7349 9.38221 15.6364V13.7082H11.949C12.0474 13.7082 12.1327 13.674 12.2048 13.6057C12.2768 13.5377 12.3127 13.4508 12.3127 13.3442V12.174C12.3127 12.0754 12.2766 11.9902 12.2048 11.9183C12.1327 11.8463 12.0474 11.8098 11.949 11.8098H9.38221V10.844H11.949C12.0474 10.844 12.1327 10.8103 12.2048 10.742C12.2768 10.6737 12.3127 10.5866 12.3127 10.4806V9.29891C12.3127 9.20036 12.2766 9.11508 12.2048 9.04311C12.1327 8.9712 12.0474 8.93533 11.949 8.93533H9.68804L13.7915 0.53393C13.8519 0.405671 13.8483 0.288009 13.7802 0.181985C13.7044 0.0608402 13.6022 0 13.4734 0H11.3026C11.1435 0 11.0335 0.0719427 10.973 0.215679L8.80256 4.98836C8.74937 5.11752 8.64516 5.34885 8.49014 5.68169C8.33474 6.01503 8.21925 6.27244 8.14349 6.45442C7.86314 5.79518 7.65091 5.32209 7.5072 5.0339L5.06383 0.204577C4.98805 0.0683113 4.878 0 4.7343 0H2.52973C2.39329 0 2.28726 0.0608402 2.21151 0.181985C2.15085 0.30313 2.15085 0.424453 2.21151 0.545568L6.40583 8.93527Z" fill="black"/>
</svg>
